<svg width="300" height="300" viewBox="0 0 300 300" fill="none" xmlns="http://www.w3.org/2000/svg">
<path d="M55.875 74.75L48.4062 45.2708M135.542 233.938C135.542 238.629 133.968 243.127 131.167 246.444C128.365 249.761 124.566 251.625 120.604 251.625C116.642 251.625 112.843 249.761 110.042 246.444C107.24 243.127 105.667 238.629 105.667 233.938M195.292 233.938C195.292 238.629 193.718 243.127 190.917 246.444C188.115 249.761 184.316 251.625 180.354 251.625C176.392 251.625 172.593 249.761 169.792 246.444C166.99 243.127 165.417 238.629 165.417 233.938M55.875 74.75H245.083L215.208 192.667H85.75L55.875 74.75Z" stroke="#222222" stroke-width="17" stroke-linecap="round" stroke-linejoin="round"/>
</svg>
