<svg width="300" height="300" viewBox="0 0 300 300" fill="none" xmlns="http://www.w3.org/2000/svg">
<path d="M150 25C125.277 25 101.11 32.3311 80.5538 46.0663C59.9976 59.8015 43.9761 79.3238 34.5151 102.165C25.0542 125.005 22.5787 150.139 27.4019 174.386C32.225 198.634 44.1301 220.907 61.6117 238.388C79.0933 255.87 101.366 267.775 125.614 272.598C149.861 277.421 174.995 274.946 197.835 265.485C220.676 256.024 240.199 240.002 253.934 219.446C267.669 198.89 275 174.723 275 150C275 133.585 271.767 117.33 265.485 102.165C259.203 86.9989 249.996 73.219 238.388 61.6117C226.781 50.0043 213.001 40.7969 197.835 34.5151C182.67 28.2332 166.415 25 150 25V25ZM150 250C130.222 250 110.888 244.135 94.443 233.147C77.9981 222.159 65.1809 206.541 57.6121 188.268C50.0433 169.996 48.063 149.889 51.9215 130.491C55.7801 111.093 65.3041 93.2746 79.2894 79.2893C93.2746 65.3041 111.093 55.78 130.491 51.9215C149.889 48.063 169.996 50.0433 188.268 57.612C206.541 65.1808 222.159 77.9981 233.147 94.443C244.135 110.888 250 130.222 250 150C250 176.522 239.464 201.957 220.711 220.711C201.957 239.464 176.522 250 150 250V250Z" fill="#111111"/>
<path d="M183.875 116.125C182.713 114.953 181.33 114.023 179.807 113.389C178.284 112.754 176.65 112.428 175 112.428C173.35 112.428 171.716 112.754 170.193 113.389C168.67 114.023 167.287 114.953 166.125 116.125L150 132.375L133.875 116.125C131.521 113.771 128.329 112.449 125 112.449C121.671 112.449 118.479 113.771 116.125 116.125C113.771 118.479 112.449 121.671 112.449 125C112.449 128.329 113.771 131.521 116.125 133.875L132.375 150L116.125 166.125C114.953 167.287 114.023 168.67 113.389 170.193C112.754 171.716 112.427 173.35 112.427 175C112.427 176.65 112.754 178.284 113.389 179.807C114.023 181.33 114.953 182.713 116.125 183.875C117.287 185.047 118.67 185.977 120.193 186.611C121.716 187.246 123.35 187.572 125 187.572C126.65 187.572 128.284 187.246 129.807 186.611C131.33 185.977 132.713 185.047 133.875 183.875L150 167.625L166.125 183.875C167.287 185.047 168.67 185.977 170.193 186.611C171.716 187.246 173.35 187.572 175 187.572C176.65 187.572 178.284 187.246 179.807 186.611C181.33 185.977 182.713 185.047 183.875 183.875C185.047 182.713 185.977 181.33 186.611 179.807C187.246 178.284 187.572 176.65 187.572 175C187.572 173.35 187.246 171.716 186.611 170.193C185.977 168.67 185.047 167.287 183.875 166.125L167.625 150L183.875 133.875C185.047 132.713 185.977 131.33 186.611 129.807C187.246 128.284 187.572 126.65 187.572 125C187.572 123.35 187.246 121.716 186.611 120.193C185.977 118.67 185.047 117.287 183.875 116.125V116.125Z" fill="#111111"/>
</svg>
