<svg width="300" height="300" viewBox="0 0 300 300" fill="none" xmlns="http://www.w3.org/2000/svg">
<path d="M125 75H175C175 68.3696 172.366 62.0107 167.678 57.3223C162.989 52.6339 156.63 50 150 50C143.37 50 137.011 52.6339 132.322 57.3223C127.634 62.0107 125 68.3696 125 75V75ZM100 75C100 61.7392 105.268 49.0215 114.645 39.6447C124.021 30.2678 136.739 25 150 25C163.261 25 175.979 30.2678 185.355 39.6447C194.732 49.0215 200 61.7392 200 75H262.5C265.815 75 268.995 76.317 271.339 78.6612C273.683 81.0054 275 84.1848 275 87.5C275 90.8152 273.683 93.9946 271.339 96.3388C268.995 98.683 265.815 100 262.5 100H251.475L240.4 229.25C239.335 241.731 233.625 253.357 224.398 261.829C215.172 270.301 203.101 275.002 190.575 275H109.425C96.8989 275.002 84.8284 270.301 75.6019 261.829C66.3753 253.357 60.6647 241.731 59.6 229.25L48.525 100H37.5C34.1848 100 31.0054 98.683 28.6612 96.3388C26.317 93.9946 25 90.8152 25 87.5C25 84.1848 26.317 81.0054 28.6612 78.6612C31.0054 76.317 34.1848 75 37.5 75H100ZM187.5 150C187.5 146.685 186.183 143.505 183.839 141.161C181.495 138.817 178.315 137.5 175 137.5C171.685 137.5 168.505 138.817 166.161 141.161C163.817 143.505 162.5 146.685 162.5 150V200C162.5 203.315 163.817 206.495 166.161 208.839C168.505 211.183 171.685 212.5 175 212.5C178.315 212.5 181.495 211.183 183.839 208.839C186.183 206.495 187.5 203.315 187.5 200V150ZM125 137.5C128.315 137.5 131.495 138.817 133.839 141.161C136.183 143.505 137.5 146.685 137.5 150V200C137.5 203.315 136.183 206.495 133.839 208.839C131.495 211.183 128.315 212.5 125 212.5C121.685 212.5 118.505 211.183 116.161 208.839C113.817 206.495 112.5 203.315 112.5 200V150C112.5 146.685 113.817 143.505 116.161 141.161C118.505 138.817 121.685 137.5 125 137.5V137.5ZM84.5 227.125C85.0326 233.368 87.8896 239.183 92.5055 243.419C97.1215 247.655 103.16 250.004 109.425 250H190.575C196.836 249.998 202.868 247.646 207.479 243.41C212.089 239.175 214.943 233.363 215.475 227.125L226.375 100H73.625L84.525 227.125H84.5Z" fill="#D43636"/>
</svg>
