<svg width="300" height="300" viewBox="0 0 300 300" fill="none" xmlns="http://www.w3.org/2000/svg">
<path d="M269.5 152.5C269.5 216.407 216.606 268.5 151 268.5C85.3941 268.5 32.5 216.407 32.5 152.5C32.5 88.5935 85.3941 36.5 151 36.5C216.606 36.5 269.5 88.5935 269.5 152.5Z" stroke="black" stroke-width="17"/>
<path d="M198.389 110H108.611C107.123 110 105.696 110.577 104.643 111.603C103.591 112.63 103 114.022 103 115.474V129.651C103 132.513 104.195 135.327 106.271 137.352L136.667 167.003V208.527C136.668 209.46 136.913 210.377 137.379 211.191C137.845 212.005 138.516 212.69 139.329 213.181C140.142 213.671 141.07 213.951 142.025 213.994C142.98 214.037 143.93 213.842 144.786 213.426L167.23 202.479C169.133 201.548 170.333 199.654 170.333 197.58V167.003L200.729 137.352C202.805 135.327 204 132.513 204 129.651V115.474C204 114.022 203.409 112.63 202.357 111.603C201.304 110.577 199.877 110 198.389 110V110ZM160.755 160.867C160.233 161.375 159.819 161.978 159.537 162.642C159.255 163.306 159.11 164.018 159.111 164.737V194.197L147.889 199.671V164.737C147.89 164.018 147.745 163.306 147.463 162.642C147.181 161.978 146.767 161.375 146.245 160.867L114.222 129.651V120.947H192.783L192.795 129.612L160.755 160.867V160.867Z" fill="#222222"/>
</svg>
