<svg width="300" height="300" viewBox="0 0 300 300" fill="none" xmlns="http://www.w3.org/2000/svg">
<path d="M128.125 125C128.184 122.912 127.824 120.833 127.065 118.886C126.307 116.94 125.166 115.165 123.71 113.667C122.254 112.169 120.512 110.978 118.588 110.165C116.663 109.352 114.595 108.933 112.506 108.933C110.417 108.933 108.349 109.352 106.425 110.165C104.501 110.978 102.759 112.169 101.303 113.667C99.8464 115.165 98.7054 116.94 97.947 118.886C97.1887 120.833 96.8284 122.912 96.8875 125C97.0025 129.066 98.6985 132.927 101.615 135.762C104.532 138.597 108.439 140.183 112.506 140.183C116.574 140.183 120.481 138.597 123.397 135.762C126.314 132.927 128.01 129.066 128.125 125V125ZM203.125 125C203.184 122.912 202.824 120.833 202.065 118.886C201.307 116.94 200.166 115.165 198.71 113.667C197.254 112.169 195.512 110.978 193.588 110.165C191.663 109.352 189.595 108.933 187.506 108.933C185.417 108.933 183.349 109.352 181.425 110.165C179.501 110.978 177.759 112.169 176.303 113.667C174.846 115.165 173.705 116.94 172.947 118.886C172.189 120.833 171.828 122.912 171.888 125C172.003 129.066 173.699 132.927 176.615 135.762C179.532 138.597 183.439 140.183 187.506 140.183C191.574 140.183 195.481 138.597 198.397 135.762C201.314 132.927 203.01 129.066 203.125 125ZM196.875 175C186.25 175 174.912 177.663 165.112 181.488C155.4 185.263 146.187 190.538 140.237 196.488C139.343 197.353 138.629 198.388 138.138 199.532C137.647 200.676 137.389 201.906 137.379 203.151C137.369 204.396 137.607 205.63 138.078 206.782C138.55 207.934 139.247 208.98 140.128 209.86C141.008 210.74 142.055 211.435 143.208 211.906C144.36 212.377 145.595 212.614 146.839 212.602C148.084 212.591 149.314 212.332 150.458 211.84C151.601 211.348 152.636 210.633 153.5 209.737C156.937 206.312 163.538 202.213 171.913 198.963C180.163 195.75 189.15 193.737 196.875 193.737H204.375C206.861 193.737 209.246 192.75 211.004 190.992C212.762 189.233 213.75 186.849 213.75 184.362C213.75 181.876 212.762 179.492 211.004 177.733C209.246 175.975 206.861 174.987 204.375 174.987H196.875V175ZM275.025 150C275.025 80.95 219.05 24.975 150 24.975C80.95 24.975 25 80.95 25 150C24.9875 219.038 80.95 275 150 275C219.05 275 275.025 219.025 275.025 149.987V150ZM43.7375 150C43.5851 135.948 46.2213 122.005 51.4934 108.978C56.7656 95.9509 64.569 84.0991 74.4521 74.1083C84.3352 64.1174 96.1017 56.1859 109.071 50.7728C122.039 45.3597 135.953 42.5724 150.006 42.5724C164.059 42.5724 177.973 45.3597 190.942 50.7728C203.911 56.1859 215.677 64.1174 225.56 74.1083C235.444 84.0991 243.247 95.9509 248.519 108.978C253.791 122.005 256.427 135.948 256.275 150C255.971 177.985 244.642 204.72 224.745 224.402C204.849 244.083 177.992 255.122 150.006 255.122C122.02 255.122 95.1634 244.083 75.2671 224.402C55.3708 204.72 44.041 177.985 43.7375 150V150Z" fill="#111111"/>
</svg>
